<svg xmlns="http://www.w3.org/2000/svg" fill="none" viewBox="0 0 55.92 47.91666666666667" style="max-height: 500px" width="55.92" height="47.91666666666667">
<path fill="#5F6FFF" d="M22.9997 0C35.7026 0 45.9997 10.2971 45.9997 23V39.1C45.9997 40.93 45.2728 42.685 43.9788 43.979C42.6848 45.273 40.9297 46 39.0997 46H24.1497V35.9099C24.1497 33.6076 24.29 31.2225 25.4975 29.2629C26.362 27.8586 27.5185 26.6566 28.8884 25.7385C30.2583 24.8204 31.8096 24.2077 33.4371 23.9419L33.8776 23.8706C34.0592 23.8085 34.2168 23.6912 34.3284 23.5351C34.44 23.379 34.5 23.1919 34.5 23C34.5 22.8081 34.44 22.621 34.3284 22.4649C34.2168 22.3088 34.0592 22.1915 33.8776 22.1294L33.4371 22.0581C31.0591 21.6697 28.8632 20.5441 27.1594 18.8403C25.4556 17.1365 24.3301 14.9406 23.9416 12.5626L23.8703 12.1222C23.8082 11.9406 23.6909 11.7829 23.5348 11.6713C23.3787 11.5597 23.1916 11.4997 22.9997 11.4997C22.8078 11.4997 22.6208 11.5597 22.4647 11.6713C22.3086 11.7829 22.1913 11.9406 22.1292 12.1222L22.0579 12.5626C21.7922 14.1902 21.1795 15.7415 20.2614 17.1114C19.3433 18.4814 18.1412 19.6378 16.7368 20.5022C14.7772 21.7097 12.3921 21.85 10.0898 21.85H0.0273438C0.628794 9.68185 10.6832 0 22.9997 0Z"/>
<path fill="#5F6FFF" d="M0 24.15H10.0901C12.3924 24.15 14.7775 24.2903 16.7371 25.4978C18.2689 26.4417 19.5583 27.7311 20.5022 29.2629C21.7097 31.2225 21.85 33.6076 21.85 35.9099V46H6.9C5.07001 46 3.31496 45.273 2.02096 43.979C0.726962 42.685 0 40.93 0 39.1L0 24.15ZM46 2.3C46 2.91 45.7577 3.49501 45.3263 3.92635C44.895 4.35768 44.31 4.6 43.7 4.6C43.09 4.6 42.505 4.35768 42.0737 3.92635C41.6423 3.49501 41.4 2.91 41.4 2.3C41.4 1.69 41.6423 1.10499 42.0737 0.673654C42.505 0.242321 43.09 0 43.7 0C44.31 0 44.895 0.242321 45.3263 0.673654C45.7577 1.10499 46 1.69 46 2.3Z"/>
<path fill="#000B6D" d="M62.848 37V13.098H73.412L78.478 29.486H77.11L82.176 13.098H92.74V37H88.548V18.368H89.678L85.112 33.328H80.476L75.91 18.368H77.04V37H62.848Z"/>
<path fill="#000B6D" d="M106.425 37.34C104.747 37.34 103.217 36.966 101.835 36.218C100.475 35.47 99.3873 34.45 98.5713 33.158C97.7553 31.866 97.3473 30.4153 97.3473 28.806C97.3473 27.174 97.7553 25.712 98.5713 24.42C99.3873 23.128 100.475 22.108 101.835 21.36C103.217 20.5893 104.747 20.204 106.425 20.204C107.785 20.204 109.009 20.442 110.097 20.918C111.207 21.394 112.136 22.074 112.885 22.958L110.029 25.848C109.575 25.372 109.032 25.0093 108.399 24.76C107.787 24.5107 107.108 24.386 106.357 24.386C105.519 24.386 104.759 24.5787 104.079 24.964C103.421 25.3267 102.9 25.8367 102.515 26.494C102.152 27.1287 101.971 27.888 101.971 28.772C101.971 29.6333 102.152 30.404 102.515 31.084C102.9 31.7413 103.421 32.2627 104.079 32.648C104.759 33.0107 105.519 33.192 106.357 33.192C107.108 33.192 107.787 33.0673 108.399 32.818C109.032 32.546 109.575 32.1607 110.029 31.662L112.919 34.552C112.136 35.4587 111.207 36.15 110.097 36.626C109.009 37.102 107.785 37.34 106.425 37.34Z"/>
<path fill="#000B6D" d="M125.857 37.34C124.179 37.34 122.672 36.966 121.335 36.218C119.997 35.47 118.943 34.45 118.173 33.158C117.402 31.866 117.017 30.4153 117.017 28.806C117.017 27.174 117.402 25.712 118.173 24.42C118.943 23.128 119.997 22.108 121.335 21.36C122.695 20.5893 124.202 20.204 125.857 20.204C127.149 20.204 128.339 20.442 129.427 20.918C130.515 21.394 131.455 22.074 132.249 22.958L129.393 25.848C128.962 25.372 128.441 25.0093 127.829 24.76C127.239 24.5107 126.582 24.386 125.857 24.386C125.041 24.386 124.304 24.5787 123.647 24.964C123.012 25.3267 122.502 25.8367 122.117 26.494C121.754 27.1287 121.573 27.888 121.573 28.772C121.573 29.6333 121.754 30.404 122.117 31.084C122.502 31.7413 123.012 32.2627 123.647 32.648C124.304 33.0107 125.041 33.192 125.857 33.192C126.605 33.192 127.273 33.0673 127.863 32.818C128.475 32.546 128.996 32.1607 129.427 31.662L132.317 34.552C131.478 35.4587 130.515 36.15 129.427 36.626C128.339 37.102 127.149 37.34 125.857 37.34Z"/>
<path fill="#000B6D" d="M144.839 37V13.098H149.463V20.578H156.075V13.098H160.699V37H156.075V24.522H149.463V37H144.839Z"/>
<path fill="#000B6D" d="M173.457 37.34C171.779 37.34 170.249 36.966 168.867 36.218C167.507 35.47 166.419 34.45 165.603 33.158C164.787 31.866 164.379 30.4153 164.379 28.806C164.379 27.174 164.787 25.712 165.603 24.42C166.419 23.128 167.507 22.108 168.867 21.36C170.249 20.5893 171.779 20.204 173.457 20.204C175.817 20.204 177.711 20.442 179.139 20.918C180.589 21.394 181.529 22.074 182.323 22.958L179.467 25.848C179.013 25.372 178.47 25.0093 177.837 24.76C177.225 24.5107 176.546 24.386 175.795 24.386C174.957 24.386 174.197 24.5787 173.517 24.964C172.859 25.3267 172.338 25.8367 171.953 26.494C171.59 27.1287 171.409 27.888 171.409 28.772C171.409 29.6333 171.59 30.404 171.953 31.084C172.338 31.7413 172.859 32.2627 173.517 32.648C174.197 33.0107 174.957 33.192 175.795 33.192C176.546 33.192 177.225 33.0673 177.837 32.818C178.47 32.546 179.013 32.1607 179.467 31.662L182.357 34.552C181.574 35.4587 180.645 36.15 179.569 36.626C178.515 37.102 177.291 37.34 175.897 37.34C175.447 37.34 174.997 37.32 174.547 37.28C174.097 37.24 173.677 37.34 173.457 37.34Z"/>
<path fill="#000B6D" d="M192.984 37V20.578H197.472V37H192.984ZM195.228 17.926C194.502 17.926 193.902 17.688 193.426 17.212C192.95 16.7133 192.712 16.1013 192.712 15.376C192.712 14.6733 192.95 14.0727 193.426 13.574C193.902 13.0753 194.502 12.826 195.228 12.826C195.976 12.826 196.576 13.0753 197.03 13.574C197.506 14.0727 197.744 14.6733 197.744 15.376C197.744 16.1013 197.506 16.7133 197.03 17.212C196.576 17.688 195.976 17.926 195.228 17.926Z"/>
<path fill="#000B6D" d="M201.421 37V20.578H205.875V24.896L205.127 28.874L205.841 32.852V43.868H201.421ZM210.529 37.34C209.351 37.34 208.285 37.102 207.333 36.626C206.381 36.1273 205.622 35.4587 205.055 34.62C204.489 33.7813 204.183 32.818 204.137 31.73V25.916C204.183 24.828 204.489 23.8647 205.055 23.026C205.645 22.1647 206.404 21.4847 207.333 20.986C208.285 20.4873 209.351 20.238 210.529 20.238C212.048 20.238 213.408 20.612 214.609 21.36C215.811 22.108 216.751 23.128 217.431 24.42C218.134 25.712 218.485 27.174 218.485 28.806C218.485 30.4153 218.134 31.866 217.431 33.158C216.751 34.45 215.811 35.47 214.609 36.218C213.408 36.966 212.048 37.34 210.529 37.34ZM209.747 33.226C210.563 33.226 211.289 33.0447 211.923 32.682C212.558 32.2967 213.045 31.7753 213.385 31.118C213.748 30.438 213.929 29.656 213.929 28.772C213.929 27.9107 213.748 27.1513 213.385 26.494C213.045 25.814 212.558 25.2927 211.923 24.93C211.289 24.5447 210.563 24.352 209.747 24.352C208.954 24.352 208.24 24.5447 207.605 24.93C206.971 25.2927 206.472 25.814 206.109 26.494C205.769 27.1513 205.599 27.9107 205.599 28.772C205.599 29.656 205.769 30.438 206.109 31.118C206.472 31.7753 206.959 32.2967 207.571 32.682C208.206 33.0447 208.931 33.226 209.747 33.226Z"/>
<path fill="#000B6D" d="M223.421 37V20.578H227.909V24.896L227.161 28.874L227.875 32.852V43.868H223.421ZM232.529 37.34C231.351 37.34 230.285 37.102 229.333 36.626C228.381 36.1273 227.622 35.4587 227.055 34.62C226.489 33.7813 226.183 32.818 226.137 31.73V25.916C226.183 24.828 226.489 23.8647 227.055 23.026C227.645 22.1647 228.404 21.4847 229.333 20.986C230.285 20.4873 231.351 20.238 232.529 20.238C234.048 20.238 235.408 20.612 236.609 21.36C237.811 22.108 238.751 23.128 239.431 24.42C240.134 25.712 240.485 27.174 240.485 28.806C240.485 30.4153 240.134 31.866 239.431 33.158C238.751 34.45 237.811 35.47 236.609 36.218C235.408 36.966 234.048 37.34 232.529 37.34ZM231.747 33.226C232.563 33.226 233.289 33.0447 233.923 32.682C234.558 32.2967 235.045 31.7753 235.385 31.118C235.748 30.438 235.929 29.656 235.929 28.772C235.929 27.9107 235.748 27.1513 235.385 26.494C235.045 25.814 234.558 25.2927 233.923 24.93C233.289 24.5447 232.563 24.352 231.747 24.352C230.954 24.352 230.24 24.5447 229.605 24.93C228.971 25.2927 228.472 25.814 228.109 26.494C227.769 27.1513 227.599 27.9107 227.599 28.772C227.599 29.656 227.769 30.438 228.109 31.118C228.472 31.7753 228.959 32.2967 229.571 32.682C230.206 33.0447 230.931 33.226 231.747 33.226Z"/>
</svg>